<svg xmlns="http://www.w3.org/2000/svg" xmlns:xlink="http://www.w3.org/1999/xlink" width="2560" zoomAndPan="magnify" viewBox="0 0 1920 1079.999946" height="1440" preserveAspectRatio="xMidYMid meet" version="1.0"><defs><g/><clipPath id="id1"><path d="M 108 278.449219 L 630.75 278.449219 L 630.75 801.199219 L 108 801.199219 Z M 108 278.449219 " clip-rule="nonzero"/></clipPath></defs><g clip-path="url(#id1)"><path fill="rgb(100%, 100%, 100%)" d="M 108 539.855469 C 108 395.488281 225.03125 278.457031 369.398438 278.457031 C 513.765625 278.457031 630.800781 395.488281 630.800781 539.855469 C 630.800781 684.222656 513.765625 801.253906 369.398438 801.253906 C 225.03125 801.253906 108 684.222656 108 539.855469 " fill-opacity="1" fill-rule="nonzero"/></g><path fill="rgb(86.268616%, 58.039856%, 53.329468%)" d="M 571.988281 681.195312 C 571.988281 684.214844 569.53125 686.671875 566.503906 686.671875 L 185.691406 686.671875 C 182.664062 686.671875 180.207031 684.214844 180.207031 681.195312 L 180.207031 449.863281 C 180.207031 446.835938 182.664062 444.386719 185.691406 444.386719 L 566.503906 444.386719 C 569.53125 444.386719 571.988281 446.835938 571.988281 449.863281 L 571.988281 681.195312 " fill-opacity="1" fill-rule="nonzero"/><path fill="rgb(100%, 100%, 100%)" d="M 374.488281 445.3125 L 374.488281 671.207031 L 559.421875 671.207031 L 559.421875 427.628906 L 536.742188 414.101562 C 430.414062 415.40625 388.710938 435.382812 374.488281 445.3125 " fill-opacity="1" fill-rule="nonzero"/><path fill="rgb(100%, 100%, 100%)" d="M 376.738281 445.3125 L 376.738281 671.207031 L 191.804688 671.207031 L 191.804688 427.628906 L 214.484375 414.101562 C 320.808594 415.40625 362.515625 435.382812 376.738281 445.3125 " fill-opacity="1" fill-rule="nonzero"/><path fill="rgb(91.369629%, 91.369629%, 91.369629%)" d="M 364.5 671.207031 L 376.738281 671.207031 L 376.738281 445.3125 C 373.875 443.316406 369.882812 440.90625 364.5 438.332031 L 364.5 671.207031 " fill-opacity="1" fill-rule="nonzero"/><path fill="rgb(91.369629%, 91.369629%, 91.369629%)" d="M 210.496094 416.480469 L 191.804688 427.628906 L 191.804688 671.207031 L 210.496094 671.207031 L 210.496094 416.480469 " fill-opacity="1" fill-rule="nonzero"/><g fill="rgb(20.388794%, 62.748718%, 63.919067%)" fill-opacity="1"><g transform="translate(652.554587, 662.26568)"><g><path d="M 34.179688 -155.761719 C 44.066406 -155.761719 52.246094 -163.695312 52.246094 -173.703125 C 52.246094 -183.59375 44.066406 -191.648438 34.179688 -191.648438 C 24.167969 -191.648438 15.992188 -183.59375 15.992188 -173.703125 C 15.992188 -163.695312 24.167969 -155.761719 34.179688 -155.761719 Z M 18.921875 0 L 49.316406 0 L 49.316406 -133.421875 L 18.921875 -133.421875 Z M 18.921875 0 "/></g></g></g><g fill="rgb(20.388794%, 62.748718%, 63.919067%)" fill-opacity="1"><g transform="translate(720.669132, 662.26568)"><g><path d="M 21.726562 0 L 53.222656 0 L 53.222656 -66.285156 L 88.132812 -66.285156 L 122.679688 0 L 158.691406 0 L 120.238281 -71.042969 C 141.113281 -78.613281 153.441406 -97.898438 153.441406 -121.214844 L 153.441406 -121.457031 C 153.441406 -155.027344 130.734375 -176.144531 92.894531 -176.144531 L 21.726562 -176.144531 Z M 53.222656 -90.453125 L 53.222656 -150.632812 L 88.988281 -150.632812 C 109.007812 -150.632812 121.09375 -139.160156 121.09375 -120.726562 L 121.09375 -120.480469 C 121.09375 -101.5625 109.496094 -90.453125 89.597656 -90.453125 Z M 53.222656 -90.453125 "/></g></g></g><g fill="rgb(20.388794%, 62.748718%, 63.919067%)" fill-opacity="1"><g transform="translate(890.467218, 662.26568)"><g><path d="M 75.683594 2.683594 C 111.9375 2.683594 129.757812 -18.1875 134.03125 -35.398438 L 134.398438 -36.5 L 105.46875 -36.5 L 105.101562 -35.644531 C 102.171875 -29.539062 92.773438 -21.238281 76.292969 -21.238281 C 55.664062 -21.238281 42.722656 -35.15625 42.359375 -59.082031 L 135.617188 -59.082031 L 135.617188 -69.089844 C 135.617188 -109.375 112.179688 -135.984375 74.21875 -135.984375 C 36.253906 -135.984375 11.960938 -108.519531 11.960938 -66.527344 L 11.960938 -66.40625 C 11.960938 -23.925781 36.011719 2.683594 75.683594 2.683594 Z M 74.585938 -112.179688 C 91.550781 -112.179688 103.878906 -101.316406 105.957031 -79.46875 L 42.601562 -79.46875 C 44.921875 -100.707031 57.617188 -112.179688 74.585938 -112.179688 Z M 74.585938 -112.179688 "/></g></g></g><g fill="rgb(20.388794%, 62.748718%, 63.919067%)" fill-opacity="1"><g transform="translate(1037.926663, 662.26568)"><g><path d="M 54.441406 0 L 87.769531 0 L 135.007812 -133.421875 L 103.027344 -133.421875 L 72.386719 -29.664062 L 70.3125 -29.664062 L 39.429688 -133.421875 L 6.957031 -133.421875 Z M 54.441406 0 "/></g></g></g><g fill="rgb(20.388794%, 62.748718%, 63.919067%)" fill-opacity="1"><g transform="translate(1179.893, 662.26568)"><g><path d="M 34.179688 -155.761719 C 44.066406 -155.761719 52.246094 -163.695312 52.246094 -173.703125 C 52.246094 -183.59375 44.066406 -191.648438 34.179688 -191.648438 C 24.167969 -191.648438 15.992188 -183.59375 15.992188 -173.703125 C 15.992188 -163.695312 24.167969 -155.761719 34.179688 -155.761719 Z M 18.921875 0 L 49.316406 0 L 49.316406 -133.421875 L 18.921875 -133.421875 Z M 18.921875 0 "/></g></g><g transform="translate(1248.007545, 662.26568)"><g><path d="M 75.683594 2.683594 C 111.9375 2.683594 129.757812 -18.1875 134.03125 -35.398438 L 134.398438 -36.5 L 105.46875 -36.5 L 105.101562 -35.644531 C 102.171875 -29.539062 92.773438 -21.238281 76.292969 -21.238281 C 55.664062 -21.238281 42.722656 -35.15625 42.359375 -59.082031 L 135.617188 -59.082031 L 135.617188 -69.089844 C 135.617188 -109.375 112.179688 -135.984375 74.21875 -135.984375 C 36.253906 -135.984375 11.960938 -108.519531 11.960938 -66.527344 L 11.960938 -66.40625 C 11.960938 -23.925781 36.011719 2.683594 75.683594 2.683594 Z M 74.585938 -112.179688 C 91.550781 -112.179688 103.878906 -101.316406 105.957031 -79.46875 L 42.601562 -79.46875 C 44.921875 -100.707031 57.617188 -112.179688 74.585938 -112.179688 Z M 74.585938 -112.179688 "/></g></g></g><g fill="rgb(20.388794%, 62.748718%, 63.919067%)" fill-opacity="1"><g transform="translate(1395.46699, 662.26568)"><g><path d="M 43.945312 0 L 75.4375 0 L 101.316406 -96.679688 L 103.390625 -96.679688 L 129.394531 0 L 161.253906 0 L 197.386719 -133.421875 L 167.234375 -133.421875 L 145.140625 -33.203125 L 143.066406 -33.203125 L 117.1875 -133.421875 L 88.257812 -133.421875 L 62.621094 -33.203125 L 60.546875 -33.203125 L 38.328125 -133.421875 L 7.8125 -133.421875 Z M 43.945312 0 "/></g></g></g><g fill="rgb(20.388794%, 62.748718%, 63.919067%)" fill-opacity="1"><g transform="translate(1600.665108, 662.26568)"><g><path d="M 75.683594 2.683594 C 111.9375 2.683594 129.757812 -18.1875 134.03125 -35.398438 L 134.398438 -36.5 L 105.46875 -36.5 L 105.101562 -35.644531 C 102.171875 -29.539062 92.773438 -21.238281 76.292969 -21.238281 C 55.664062 -21.238281 42.722656 -35.15625 42.359375 -59.082031 L 135.617188 -59.082031 L 135.617188 -69.089844 C 135.617188 -109.375 112.179688 -135.984375 74.21875 -135.984375 C 36.253906 -135.984375 11.960938 -108.519531 11.960938 -66.527344 L 11.960938 -66.40625 C 11.960938 -23.925781 36.011719 2.683594 75.683594 2.683594 Z M 74.585938 -112.179688 C 91.550781 -112.179688 103.878906 -101.316406 105.957031 -79.46875 L 42.601562 -79.46875 C 44.921875 -100.707031 57.617188 -112.179688 74.585938 -112.179688 Z M 74.585938 -112.179688 "/></g></g></g><g fill="rgb(20.388794%, 62.748718%, 63.919067%)" fill-opacity="1"><g transform="translate(1748.124553, 662.26568)"><g><path d="M 18.554688 0 L 48.949219 0 L 48.949219 -77.515625 C 48.949219 -96.554688 62.253906 -108.640625 82.519531 -108.640625 C 87.769531 -108.640625 92.773438 -107.910156 97.65625 -106.933594 L 97.65625 -134.152344 C 94.726562 -135.007812 89.964844 -135.617188 85.328125 -135.617188 C 67.75 -135.617188 55.542969 -127.195312 51.023438 -112.914062 L 48.949219 -112.914062 L 48.949219 -133.421875 L 18.554688 -133.421875 Z M 18.554688 0 "/></g></g></g></svg>