<svg xmlns="http://www.w3.org/2000/svg" xmlns:xlink="http://www.w3.org/1999/xlink" width="2560" zoomAndPan="magnify" viewBox="0 0 1920 1079.999946" height="1440" preserveAspectRatio="xMidYMid meet" version="1.0"><defs><g/><clipPath id="id1"><path d="M 344.3125 436 L 606 436 L 606 657.597656 L 344.3125 657.597656 Z M 344.3125 436 " clip-rule="nonzero"/></clipPath></defs><rect x="-192" width="2304" fill="rgb(100%, 100%, 100%)" y="-107.999995" height="1295.999935" fill-opacity="1"/><rect x="-192" width="2304" fill="rgb(100%, 100%, 100%)" y="-107.999995" height="1295.999935" fill-opacity="1"/><rect x="-192" width="2304" fill="rgb(100%, 100%, 100%)" y="-107.999995" height="1295.999935" fill-opacity="1"/><rect x="-192" width="2304" fill="rgb(100%, 100%, 100%)" y="-107.999995" height="1295.999935" fill-opacity="1"/><g clip-path="url(#id1)"><path fill="rgb(86.268616%, 58.039856%, 53.329468%)" d="M 605.640625 492.132812 C 605.285156 485.9375 607.558594 479.007812 603.445312 473.617188 C 596.238281 471.628906 589.046875 469.617188 581.816406 467.84375 C 581.4375 458.882812 582.148438 449.890625 581.488281 440.953125 C 580.449219 434.851562 573.027344 436.976562 568.722656 436.929688 C 531.425781 438.796875 497.054688 459.921875 475.121094 489.601562 C 451.527344 457.4375 412.859375 435.273438 372.367188 436.929688 C 371.5625 437.613281 369.933594 438.984375 369.105469 439.671875 C 367.875 448.964844 369.035156 458.453125 368.535156 467.816406 C 360.335938 471.128906 348.214844 470.609375 344.3125 480.074219 C 345.847656 483.8125 346.203125 487.855469 346.039062 491.875 C 345.683594 539.320312 346.367188 586.746094 345.707031 634.171875 C 345.089844 637.742188 345.753906 644.058594 350.882812 642.949219 C 367.453125 636.917969 385.296875 634.738281 402.878906 635.757812 C 426.777344 637.625 451.597656 643.234375 471.238281 657.566406 C 473.152344 657.566406 476.960938 657.566406 478.847656 657.589844 C 489.722656 649.238281 502.910156 644.699219 515.933594 640.9375 C 543.851562 633.109375 573.988281 633.839844 601.425781 643.230469 C 607.289062 642.238281 605.703125 635.804688 605.753906 631.542969 C 605.503906 585.089844 605.714844 538.609375 605.640625 492.132812 Z M 356.011719 630.101562 C 356.15625 581.113281 355.992188 532.105469 356.082031 483.121094 C 360.265625 481.628906 364.476562 480.144531 368.683594 478.675781 C 368.589844 517.796875 368.613281 556.921875 368.660156 596.042969 C 368.117188 603.160156 377.003906 601.90625 381.636719 602.355469 C 409.292969 603.511719 434.464844 617.589844 454.558594 635.871094 C 423.542969 623.335938 388.230469 620.496094 356.011719 630.101562 Z M 491.027344 638.382812 C 506.363281 623.359375 524.046875 609.882812 545.0625 604.082031 C 555.886719 600.414062 567.347656 600.0625 578.601562 598.996094 C 582.238281 598.546875 581.484375 594.007812 581.746094 591.453125 C 581.722656 554.03125 581.699219 516.613281 581.722656 479.195312 C 586.234375 480.566406 590.75 481.9375 595.289062 483.261719 C 595.925781 532.246094 595.3125 581.257812 595.59375 630.238281 C 561.207031 620.710938 523.648438 624.117188 491.027344 638.382812 Z M 491.027344 638.382812 " fill-opacity="1" fill-rule="nonzero"/></g><g fill="rgb(20.388794%, 62.748718%, 63.919067%)" fill-opacity="1"><g transform="translate(643.038963, 637.999902)"><g><path d="M 33.640625 -153.101562 C 46.71875 -153.101562 56.621094 -163.257812 56.621094 -175.320312 C 56.621094 -187.378906 46.71875 -197.410156 33.640625 -197.410156 C 20.691406 -197.410156 10.664062 -187.378906 10.664062 -175.320312 C 10.664062 -163.257812 20.691406 -153.101562 33.640625 -153.101562 Z M 11.171875 0 L 56.113281 0 L 56.113281 -138.25 L 11.171875 -138.25 Z M 11.171875 0 "/></g></g></g><g fill="rgb(20.388794%, 62.748718%, 63.919067%)" fill-opacity="1"><g transform="translate(710.322812, 637.999902)"><g><path d="M 13.835938 0 L 60.429688 0 L 60.429688 -63.09375 L 84.167969 -63.09375 L 115.652344 0 L 167.957031 0 L 131.265625 -70.078125 C 150.308594 -78.328125 162.496094 -98.640625 162.496094 -122.125 L 162.496094 -122.378906 C 162.496094 -161.226562 137.488281 -183.191406 93.183594 -183.191406 L 13.835938 -183.191406 Z M 60.429688 -96.863281 L 60.429688 -148.023438 L 87.722656 -148.023438 C 104.097656 -148.023438 115.015625 -137.867188 115.015625 -122.507812 L 115.015625 -122.253906 C 115.015625 -106.765625 104.480469 -96.863281 87.976562 -96.863281 Z M 60.429688 -96.863281 "/></g></g></g><g fill="rgb(20.388794%, 62.748718%, 63.919067%)" fill-opacity="1"><g transform="translate(882.340989, 637.999902)"><g><path d="M 76.804688 2.917969 C 120.855469 2.917969 138.25 -22.976562 142.4375 -42.148438 L 142.820312 -43.671875 L 102.195312 -43.671875 L 102.066406 -43.035156 C 100.039062 -37.324219 92.167969 -29.070312 77.695312 -29.070312 C 61.316406 -29.070312 51.160156 -40.117188 50.652344 -58.777344 L 143.582031 -58.777344 L 143.582031 -71.980469 C 143.582031 -113.875 117.046875 -141.167969 75.28125 -141.167969 C 33.261719 -141.167969 6.601562 -113.621094 6.601562 -69.1875 L 6.601562 -69.0625 C 6.601562 -24.375 33.132812 2.917969 76.804688 2.917969 Z M 76.296875 -109.175781 C 89.5 -109.175781 98.894531 -100.800781 101.179688 -85.3125 L 51.289062 -85.3125 C 53.574219 -100.546875 63.09375 -109.175781 76.296875 -109.175781 Z M 76.296875 -109.175781 "/></g></g></g><g fill="rgb(20.388794%, 62.748718%, 63.919067%)" fill-opacity="1"><g transform="translate(1032.523623, 637.999902)"><g><path d="M 45.957031 0 L 98.007812 0 L 143.835938 -138.25 L 96.738281 -138.25 L 73.125 -37.703125 L 72.234375 -37.703125 L 48.113281 -138.25 L -0.253906 -138.25 Z M 45.957031 0 "/></g></g></g><g fill="rgb(20.388794%, 62.748718%, 63.919067%)" fill-opacity="1"><g transform="translate(1175.97791, 637.999902)"><g><path d="M 33.640625 -153.101562 C 46.71875 -153.101562 56.621094 -163.257812 56.621094 -175.320312 C 56.621094 -187.378906 46.71875 -197.410156 33.640625 -197.410156 C 20.691406 -197.410156 10.664062 -187.378906 10.664062 -175.320312 C 10.664062 -163.257812 20.691406 -153.101562 33.640625 -153.101562 Z M 11.171875 0 L 56.113281 0 L 56.113281 -138.25 L 11.171875 -138.25 Z M 11.171875 0 "/></g></g></g><g fill="rgb(20.388794%, 62.748718%, 63.919067%)" fill-opacity="1"><g transform="translate(1243.261748, 637.999902)"><g><path d="M 76.804688 2.917969 C 120.855469 2.917969 138.25 -22.976562 142.4375 -42.148438 L 142.820312 -43.671875 L 102.195312 -43.671875 L 102.066406 -43.035156 C 100.039062 -37.324219 92.167969 -29.070312 77.695312 -29.070312 C 61.316406 -29.070312 51.160156 -40.117188 50.652344 -58.777344 L 143.582031 -58.777344 L 143.582031 -71.980469 C 143.582031 -113.875 117.046875 -141.167969 75.28125 -141.167969 C 33.261719 -141.167969 6.601562 -113.621094 6.601562 -69.1875 L 6.601562 -69.0625 C 6.601562 -24.375 33.132812 2.917969 76.804688 2.917969 Z M 76.296875 -109.175781 C 89.5 -109.175781 98.894531 -100.800781 101.179688 -85.3125 L 51.289062 -85.3125 C 53.574219 -100.546875 63.09375 -109.175781 76.296875 -109.175781 Z M 76.296875 -109.175781 "/></g></g></g><g fill="rgb(20.388794%, 62.748718%, 63.919067%)" fill-opacity="1"><g transform="translate(1393.444381, 637.999902)"><g><path d="M 37.578125 0 L 85.3125 0 L 106.890625 -93.054688 L 107.78125 -93.054688 L 129.742188 0 L 178.238281 0 L 213.910156 -138.25 L 169.480469 -138.25 L 151.960938 -40.625 L 151.070312 -40.625 L 129.742188 -138.25 L 86.707031 -138.25 L 65.632812 -40.625 L 64.746094 -40.625 L 47.097656 -138.25 L 1.648438 -138.25 Z M 37.578125 0 "/></g></g></g><g fill="rgb(20.388794%, 62.748718%, 63.919067%)" fill-opacity="1"><g transform="translate(1609.133539, 637.999902)"><g><path d="M 76.804688 2.917969 C 120.855469 2.917969 138.25 -22.976562 142.4375 -42.148438 L 142.820312 -43.671875 L 102.195312 -43.671875 L 102.066406 -43.035156 C 100.039062 -37.324219 92.167969 -29.070312 77.695312 -29.070312 C 61.316406 -29.070312 51.160156 -40.117188 50.652344 -58.777344 L 143.582031 -58.777344 L 143.582031 -71.980469 C 143.582031 -113.875 117.046875 -141.167969 75.28125 -141.167969 C 33.261719 -141.167969 6.601562 -113.621094 6.601562 -69.1875 L 6.601562 -69.0625 C 6.601562 -24.375 33.132812 2.917969 76.804688 2.917969 Z M 76.296875 -109.175781 C 89.5 -109.175781 98.894531 -100.800781 101.179688 -85.3125 L 51.289062 -85.3125 C 53.574219 -100.546875 63.09375 -109.175781 76.296875 -109.175781 Z M 76.296875 -109.175781 "/></g></g></g><g fill="rgb(20.388794%, 62.748718%, 63.919067%)" fill-opacity="1"><g transform="translate(1759.316173, 637.999902)"><g><path d="M 10.789062 0 L 55.859375 0 L 55.859375 -73.378906 C 55.859375 -93.054688 66.140625 -103.464844 85.058594 -103.464844 C 90.390625 -103.464844 95.59375 -102.449219 99.402344 -100.925781 L 99.402344 -139.390625 C 95.976562 -140.535156 92.039062 -141.167969 87.722656 -141.167969 C 71.472656 -141.167969 60.554688 -131.265625 56.746094 -113.746094 L 55.859375 -113.746094 L 55.859375 -138.25 L 10.789062 -138.25 Z M 10.789062 0 "/></g></g></g></svg>